<svg xmlns="http://www.w3.org/2000/svg" heiht="97.39" width="296" viewBox="0 0 300 101.39">
 <g transform="matrix(1.3333 0 0 -1.3333 -257.51 575.24)">
  <g>
   <path d="m362.1 429.9c-2.7542 6e-3 -5.8702 7e-3 -8.8902-2.1672-0.38026-0.27872-1.438-1.2238-3.1769-2.804l-83.162-4e-3 1.7223 4.9804h-73.932l30.419-14.808-0.57963-2.3887-24.077-6e-3 20.516-12.615-9.0212-33.515 26.022-9.7024s26.537 22.82 66.687 22.82c40.157 0 67.076-22.825 67.076-22.825 4e-3 -6e-3 28.55 11.089 28.55 11.089l-12.401 47.947 28.808 14h-54.561" fill="#fff"/>
   <path d="m264.22 423.06 1.7352 4.9693h-63.156l24.474-11.912-1.3254-5.2942-18.831-0.0351 15.993-9.8353-8.9418-33.216 23.37-8.7166s25.688 22.548 67.084 22.548 67.451-22.548 67.451-22.548l25.941 10.081-12.368 47.818 22.851 11.107h-45.086c-2.5936 2e-3 -5.2702 4e-3 -7.8084-1.8201-0.45778-0.33595-2.4883-2.1726-3.5553-3.1455h-87.829" fill="#004851"/>
   <path transform="matrix(.75 0 0 -.75 193.14 431.43)" d="m27.824 6.5215 23.443 10.744h-0.068359l-3.4023 12.385h-15.824l17.266 10.107h-4.4199l-11.6 43.086s20.599-10.857 40.631-17.348c-20.03 8.2576-31.993 16.157-35.771 18.83l21.68 8.5664s14.752-12.029 40.521-20.289l-7.8574-11.297 10.422 10.508c5.7446-1.7352 12.003-3.267 18.734-4.4336l-1.7129-11.855c0.8024 2.1955 2.2642 6.2375 2.8008 7.7832 0.75066 2.1684 2.9286 3.3053 5.1758 3.1133 6.0892-0.52424 12.468-1.2504 19.189-1.3809l1.416-11.154 1.418 11.129c10.224 0.054133 19.738 1.0989 28.441 2.7578l6.4238-11.441-3.5859 12.012c10.763 2.2644 20.212 5.4473 28.154 8.7676l14.441-12.832-11.602 14.057c16.414 7.2706 25.639 14.797 25.639 14.797l26.621-10.768c-3.4236-2.1831-14.218-8.6306-32.092-15.377 5.1884 1.6958 11.761 3.9171 16.834 5.8984 9.7811 3.8125 20.385 8.959 20.385 8.959l-11.4-41.672c-1.2577-4.6075-4.812-7.9118-9.4688-9.0957l6.3203-3.6172-2.8359-10.637 21.121-10.295h-46.248c-3.2833-0.0026667-6.3832-0.0094118-9.2383 2.0488-0.66459 0.48488-5.1348 4.5684-5.1348 4.5684h-120.69l2.3164-6.625h-66.447zm203.78 13.797h2.418l-0.73828 1.1055 2.1641 8.7363c-1.1174-0.095973-1.9163-1.3076-2.123-2.5801l-1.7207-7.2617zm-59.137 0.62109 4.9258 3.7363 1.207 15.352-7.5117 0.039062 0.2461 4.9238-1.2578-0.052734-1.2793-18.92h4.0957l-0.42578-5.0781zm-97.561 4.502h3.4434l6.7441 3.5781-0.44336 0.85156h-10.701l0.95703-4.4297zm58.436 0.57617h2.4082l-0.09375 3.9883h-2.5176l0.20312-3.9883zm63.119 0h2.9375l0.5918 3.5488h-2.9863l-0.54297-3.5488zm9.2383 6.4395h6.625v0.001953c0.66204 1.9838 1.8231 4.3467 4.2598 6.4609l-9.8711-0.00586-1.0137-6.457zm-73.01 4.5156 2.7012 2.4492-0.11719 5.5645-2.8984 0.14648 0.31446-8.1602zm65.971 5.9043h3.5195l1.0352 6.5215-3.8027-0.53906-0.75195-5.9824zm37.162 0.90625c1.3488 0.39135 1.8811 1.3776 2.5801 3.7773l2.916 12.215-1.9453-0.66016-3.5508-15.332zm-165.69 3.8848h8.2734l-0.85547 2.4863-8.3242 2.1367 0.90625-4.623z"/>
   <path transform="matrix(.75 0 0 -.75 193.14 431.43)" d="m34.381 7.9531 23.443 10.742h-5.5352l-3.4004 12.383h-11.639l17.264 10.107h-8.5996l-10.459 38.859s26.879-14.185 55.373-20.648c0.051733-0.012 3.7246-11.393 3.7246-11.393l-3.1426-1.9316h13.336l0.53711 10.844 13.217-2.3066 0.32422-4.4277c0.18949 0.33723 0.41615 0.67164 0.69922 1.0039 0.68424 0.74084 1.5573 1.3118 2.6797 1.7695 2.3382 0.95991 4.7228 0.78998 7.248 0.61523-0.00533 0 18.947-1.168 18.947-1.168l-0.11719-20.414h-15.17l5.1562 4.3184-0.125 10.547s-6.8309 0.41932-7.3379-0.060547c-0.49471-0.46521-0.45031-1.7684-0.37891-3.7324l1.0859-19.986-1.5742-1.8066h8.6465v6.3438l9.6992 0.007813v-8.7129l-4.6367-4.1582h-29.059l5.0156 6.8926-1.7266 22.693v0.023438 0.048828c-0.00933 1.3291-0.01055 2.5882 0.21289 3.7598l-3.8652 0.49805-1.6504-33.932h-18.449l-13.217 36.316-17.396 4.8027 2.6074-13.023h13.883l3.7891-11.293-15.283-0.007812 2.457-11.646h8.8516l6.9004 3.9082 5.5371-15.836h-57.873zm192.61 0.0039062c-3.1726-0.0026666-5.918-0.005583-8.3965 1.7793-4.3712 3.1923-3.2553 7.925-2.7188 10.199-0.00534-0.019733 1.4726 7.3125 1.4726 7.3125 1.4029 7.5044 6.6788 11.479 15.254 11.479h3.2676c5.304 0.0664 6.8975 2.2554 8.1035 6.543-0.00533-0.027066 3.248 13.852 3.248 13.852 0.571 2.193 0.37866 2.9438 0.11523 3.1875-0.64488 0.59805-6.0605-1.2383-6.0605-1.2383-0.02947-0.009333-2.4652-0.66112-3.3906-0.90234l-3.998-18.072h-14.021l4.3066 20.801c0.15509 0.0468 15.621 4.8123 25.471 8.6543 9.85 3.8396 17.654 7.6289 17.654 7.6289l-10.566-38.631c-1.4202-5.1859-6.1207-8.5293-11.979-8.5293l-6.8359-0.009765c-4.0611-0.0492-5.1528-0.060772-6.1348-4.0801 0.00533 0.024666-1.4805-7.3066-1.4805-7.3066-0.45043-2.0281-0.43737-3.3057 0.03515-3.9062 0.54147-0.68668 1.9152-0.71413 3.6504-0.74609l0.07618-0.005859h7.6055l-4.3516 2.0762 2.0176 7.9863h13.764l-2.6641-9.9688 16.611-8.1016h-40.055zm-80.123 6.7891 7.4766 7.082 0.3125 24.742-4.957 5.875 1.2891-0.007812c6.9039-0.054133 17.64 0.079259 31.152 1.8809l0.75 0.10156-1.3106-12.305-7.6191-0.072265 0.49219 5.0859-9.1484-0.4668 2.7656-2.5254-1.5449-22.869h3.582l-0.33789-6.5215h-22.902zm25.865 0 9.6035 7.0449 3.0215 32.447 0.04687 0.46289 0.46094 0.070312 2.1055 0.3125c8.9172 1.3414 32.832 6.8652 32.832 6.8652l-3.6191-19.854h-0.00195l-10.729-0.003906 1.6543 9.8945-12.477-1.9609 2.3789-1.7832-1.2734-10.113h8.2344l-1.0352-6.5762h-7.9668l-1.1992-10.287h8.8398l1.0742 6.4414h10.092l-2.1016-12.961h-39.941zm-69.521 7.5723h0.35157l0.77734 15.727h-6.3105l5.1816-15.727z" fill="#a2aaad"/>
   <path transform="matrix(.75 0 0 -.75 193.14 431.43)" d="m39.822 9.1406 23.443 10.74h-10.07l-3.4004 12.385h-8.166l17.266 10.109h-12.07l-9.5156 35.352c5.405-2.7591 28.271-13.984 52.596-19.34l3.2324-9.8594-5.918-3.6426h18.66l0.52343 10.629 10.98-1.9141 0.3086-4.1875v-0.001953l-4.5918 0.58984-1.6543-34.08h-16.486l-13.145 36.107-19.846 5.4785 3.1758-15.869h14.006l2.9844-8.9102-15.094-0.009765 2.959-14.021h10.129l5.9355 3.3613 4.5176-12.916h-50.76zm187.17 0.0039062c-2.9683-0.0053333-5.5377-0.0061391-7.7012 1.5547-3.7313 2.7197-2.7732 6.7845-2.2539 8.9824 0 0 1.4805 7.33 1.4805 7.3398 1.302 6.9753 6.045 10.512 14.086 10.512h3.2715c6.0055 0.083733 7.9376 2.7783 9.252 7.4375 0 0 3.251 13.878 3.2461 13.865 0.60551 2.3259 0.53889 3.6261-0.22656 4.3398-1.1617 1.0854-3.4147 0.3203-7.1484-0.94726 0 0-0.10437-0.033751-0.0625-0.021485l-4.0566-1.0859-3.9453-17.836h-11.631l3.5625 18.584c2.3087 0.71373 16.121 5.0349 25.211 8.5742 7.4749 2.9191 13.07 5.4551 15.389 6.5332-1.7746-6.4855-9.8789-36.117-9.8789-36.117-0.96727-3.5294-4.386-7.6504-10.832-7.6504l-6.8477-0.007812c-4.1694-0.056533-6.0722-0.076352-7.2832-5.0137 0 0-1.4873-7.3268-1.4824-7.3145-0.54395-2.4612-0.4649-3.9677 0.26367-4.8906 0.89096-1.1273 2.5059-1.1603 4.5586-1.207h0.0918 12.869l-8.2188 3.918 1.5566 6.1445h11.289l-2.5117-9.4219 12.861-6.2715h-34.908zm-110.07 6.791 3.9004 5.3613s-1.7578 23.128-1.7578 23.115c-0.00933 1.59-0.02024 3.0953 0.3711 4.2891 0.21908 0.52424 0.49466 1.1386 0.97461 1.6973 0.54886 0.59072 1.2823 1.0632 2.2422 1.457 2.0847 0.85159 4.3338 0.69666 6.7188 0.5293l17.832-1.1016-0.10351-18.104h-10.717l3.082 2.5762-0.14843 12.215s-4.504 0.27734-4.4844 0.27734c-2.4884 0.23135-4 0.20764-4.8418-0.58984-0.88604-0.8368-0.83613-2.266-0.75-4.6387l1.0606-19.529-2.9727-3.4102h12.443v6.3457l7.3223 0.00586v-6.9961l-3.9023-3.5h-26.27zm32.932 0 5.6758 5.375 0.32422 25.689-3.5781 4.2402c6.8128-0.024666 16.858 0.19504 29.277 1.8047l-1.0391-9.75-5.2422-0.046875 0.5 5.1387-13.367-0.68164 4.4434-4.0586-1.5918-23.566h3.6055l-0.21875-4.1445h-18.789zm26.514 0 7.1074 5.2129 3.0312 32.516c2.9388 0.45776 19.591 3.0988 32.793 6.6406l-3.1035-17.018-8.3711-0.013671 1.7305 10.141-16.875-2.6543 4.0684-3.0586-1.3516-10.762h8.1836l-0.6543-4.2012h-8.0059l-1.4824-12.658h11.18l1.0781 6.4355h7.6895l-1.7207-10.58h-35.297zm-74.012 5.1914h2.3418l0.89257 18.109h-9.1973l5.9629-18.109z" fill="#fff"/>
  </g>
 </g>
</svg>
